<svg version="1.0" xmlns="http://www.w3.org/2000/svg" width="512" height="512" viewBox="0 0 512 512">
<g transform="translate(0,512) scale(0.1,-0.1)" fill="#42b883" stroke="none">
<path d="M2320 4634 c-19 -2 -78 -9 -130 -15 -311 -37 -617 -142 -895 -307 -85 -50 -265 -175 -265 -183 0 -3 -15 -17 -33 -31 -110 -86 -277 -253 -363 -363 -14 -18 -28 -33 -31 -33 -8 0 -133 -180 -183 -265 -165 -278 -270 -584 -307 -895 -13 -107 -13 -373 0 -480 37 -311 142 -617 307 -895 50 -85 175 -265 183 -265 3 0 17 -15 31 -33 86 -110 253 -277 363 -363 18 -14 33 -28 33 -31 0 -8 180 -133 265 -183 278 -165 584 -270 895 -307 107 -13 373 -13 480 0 311 37 617 142 895 307 85 50 265 175 265 183 0 3 15 17 33 31 110 86 277 253 363 363 14 18 28 33 31 33 8 0 133 180 183 265 165 278 270 584 307 895 13 107 13 373 0 480 -37 311 -142 617 -307 895 -50 85 -175 265 -183 265 -3 0 -17 15 -31 33 -86 110 -253 277 -363 363 -18 14 -33 28 -33 31 0 8 -180 133 -265 183 -278 165 -584 270 -895 307 -52 6 -111 13 -130 15 -43 5 -337 5 -380 0z"/>
</g>
</svg>
